{"title":"Con Air*1997*[BluRay][1080p][ENG, POL]","uid":5836793,"size":9524025128,"categoryP":"video","categoryS":"hd___movies","magnet":"?xt=urn:btih:26bb67a08703659fb9f9a31dfe6af2b6444d1297&amp;dn=Con+Air%2A1997%2A%5BBluRay%5D%5B1080p%5D%5BENG%2C+POL%5D&amp;tr=udp%3A%2F%2Ftracker.openbittorrent.com%3A80&amp;tr=udp%3A%2F%2Fopen.demonii.com%3A1337&amp;tr=udp%3A%2F%2Ftracker.coppersurfer.tk%3A6969&amp;tr=udp%3A%2F%2Fexodus.desync.com%3A6969","seeders":0,"leechers":1,"uploader":"albedo040","files":1,"time":1284749306,"description":"Con Air*1997*[BluRay][1080p][ENG, POL]\n\nGeneral information:\nCountry: USA\nRelease: 5 June 1997\nGenre: Action, Crime, Thriller \nDirector: Simon West\nScreenplay: Scott Rosenberg\nOriginal Music: Mark Mancina, Trevor Rabin\nCinematography by:  \nDuration: 1h 55mn\nLanguage: English, Polish\nSubtitles: Polish\nRating: 7.4/10 - 12665 votes\n\nCast:\nNicolas Cage  ...  Cameron Poe  \nJohn Cusack  ...  U.S. Marshal Vince Larkin  \nJohn Malkovich  ...  Cyrus 'The Virus' Grissom  \nVing Rhames  ...  Nathan 'Diamond Dog' Jones  \nNick Chinlund  ...  William 'Billy Bedlam' Bedford  \nSteve Buscemi  ...  Garland 'The Marietta Mangler' Greene  \nColm Meaney  ...  DEA Agent Duncan Malloy  \nRachel Ticotin  ...  Guard Sally Bishop  \nDave Chappelle  ...  Joe 'Pinball' Parker  \nMykelti Williamson  ...  Mike 'Baby-O' O'Dell  \nDanny Trejo  ...  Johnny 'Johnny-23' Baca  \nM.C. Gainey  ...  Swamp Thing  \nSteve Eastin  ...  Guard Falzon  \nRenoly Santiago  ...  Ramon 'Sally-Can't Dance' Martinez (as Renoly)  \nMonica Potter  ...  Tricia Poe  \n\nPlot:\nA newly released ex-con and former US Ranger finds himself trapped in a prisoner transport plane when the passengers seize control.\n\nSpecifications:\nGeneral\nFormat                           : Matroska\nOverall bit rate                 : 11.0 Mbps\n\nVideo\nFormat                           : AVC\nFormat/Info                      : Advanced Video Codec\nFormat profile                   : &lt;a class=&quot;__cf_email__&quot; href=&quot;/cdn-cgi/l/email-protection&quot; data-cfemail=&quot;5f173638371f136b716e&quot;&gt;[email&amp;#160;protected]&lt;/a&gt;&lt;script data-cfhash='f9e31' type=&quot;text/javascript&quot;&gt;\n/* &lt;![CDATA[ */!function(){try{var t=&quot;currentScript&quot;in document?document.currentScript:function(){for(var t=document.getElementsByTagName(&quot;script&quot;),e=t.length;e--;)if(t[e].getAttribute(&quot;data-cfhash&quot;))return t[e]}();if(t&amp;&amp;t.previousSibling){var e,r,n,i,c=t.previousSibling,a=c.getAttribute(&quot;data-cfemail&quot;);if(a){for(e=&quot;&quot;,r=parseInt(a.substr(0,2),16),n=2;a.length-n;n+=2)i=parseInt(a.substr(n,2),16)^r,e+=String.fromCharCode(i);e=document.createTextNode(e),c.parentNode.replaceChild(e,c)}t.parentNode.removeChild(t);}}catch(u){}}()/* ]]&gt; */&lt;/script&gt;\nFormat settings, CABAC           : Yes\nFormat settings, ReFrames        : 4 frames\nFormat settings, GOP             : N=1\nMuxing mode                      : Container profile=&lt;a class=&quot;__cf_email__&quot; href=&quot;/cdn-cgi/l/email-protection&quot; data-cfemail=&quot;3b6e555055544c557b0f150a&quot;&gt;[email&amp;#160;protected]&lt;/a&gt;&lt;script data-cfhash='f9e31' type=&quot;text/javascript&quot;&gt;\n/* &lt;![CDATA[ */!function(){try{var t=&quot;currentScript&quot;in document?document.currentScript:function(){for(var t=document.getElementsByTagName(&quot;script&quot;),e=t.length;e--;)if(t[e].getAttribute(&quot;data-cfhash&quot;))return t[e]}();if(t&amp;&amp;t.previousSibling){var e,r,n,i,c=t.previousSibling,a=c.getAttribute(&quot;data-cfemail&quot;);if(a){for(e=&quot;&quot;,r=parseInt(a.substr(0,2),16),n=2;a.length-n;n+=2)i=parseInt(a.substr(n,2),16)^r,e+=String.fromCharCode(i);e=document.createTextNode(e),c.parentNode.replaceChild(e,c)}t.parentNode.removeChild(t);}}catch(u){}}()/* ]]&gt; */&lt;/script&gt;\nCodec ID                         : V_MPEG4/ISO/AVC\nBit rate                         : 9 298 Kbps\nWidth                            : 1 920 pixels\nHeight                           : 826 pixels\nDisplay aspect ratio             : 2.35:1\nFrame rate                       : 23.976 fps\n\nAudio 1\nFormat                           : AC-3\nFormat/Info                      : Audio Coding 3\nMode extension                   : CM (complete main)\nCodec ID                         : A_AC3\nBit rate mode                    : Constant\nBit rate                         : 192 Kbps\nChannel(s)                       : 2 channels\nChannel positions                : Front: L R\nSampling rate                    : 48.0 KHz\nBit depth                        : 16 bits\nStream size                      : 159 MiB (2%)\nLanguage                         : Polish\n\nAudio 2\nFormat                           : DTS\nFormat/Info                      : Digital Theater Systems\nCodec ID                         : A_DTS\nBit rate mode                    : Constant\nBit rate                         : 1 510 Kbps\nChannel(s)                       : 6 channels\nChannel positions                : Front: L C R, Side: L R, LFE\nSampling rate                    : 48.0 KHz\nBit depth                        : 24 bits\nStream size                      : 1.22 GiB (14%)\nLanguage                         : English\n\nText\nFormat                           : UTF-8\nCodec ID                         : S_TEXT/UTF8\nCodec ID/Info                    : UTF-8 Plain Text\nLanguage                         : Polish\n","torrent":{"xt":"urn:btih:26bb67a08703659fb9f9a31dfe6af2b6444d1297","amp;dn":"Con+Air%2A1997%2A%5BBluRay%5D%5B1080p%5D%5BENG%2C+POL%5D","amp;tr":["udp%3A%2F%2Ftracker.openbittorrent.com%3A80","udp%3A%2F%2Fopen.demonii.com%3A1337","udp%3A%2F%2Ftracker.coppersurfer.tk%3A6969","udp%3A%2F%2Fexodus.desync.com%3A6969"],"infoHash":"26bb67a08703659fb9f9a31dfe6af2b6444d1297","infoHashBuffer":{"type":"Buffer","data":[38,187,103,160,135,3,101,159,185,249,163,29,254,106,242,182,68,77,18,151]},"announce":[],"urlList":[]}}